<?xml version="1.0" encoding="UTF-8" standalone="no"?>
<!DOCTYPE svg PUBLIC "-//W3C//DTD SVG 1.1//EN" "http://www.w3.org/Graphics/SVG/1.1/DTD/svg11.dtd">
<svg version="1.1" xmlns="http://www.w3.org/2000/svg" xmlns:xlink="http://www.w3.org/1999/xlink" preserveAspectRatio="xMidYMid meet" viewBox="0 0 16 16" width="16" height="16"><defs><path d="M0 0L16 0L16 16L0 16L0 16L0 0ZM6.72 13.59L6.72 12.47L7.71 13.28L8.94 13.59L10.17 13.28L11.17 12.46L11.85 11.25L12.1 9.76L11.85 8.27L11.17 7.05L10.17 6.23L8.94 5.93L7.71 6.23L6.72 7.04L6.72 2.27L4.16 2.27L4.16 13.59L4.16 13.59L6.72 13.59ZM9.93 9.03L10.06 9.76L9.93 10.49L9.56 11.08L9.01 11.48L8.35 11.63L7.68 11.48L7.13 11.08L6.76 10.49L6.72 10.26L6.72 9.25L6.76 9.03L7.13 8.43L7.68 8.03L8.35 7.88L9.01 8.03L9.56 8.43L9.56 8.43L9.93 9.03Z" id="c1kAiZqIlD"></path></defs><g><g><g><use xlink:href="#c1kAiZqIlD" opacity="1" fill="#a0a5aa" fill-opacity="1"></use></g></g></g></svg>
